# xmcd
# Copyright (C) 1995-1998 Ti Kan
#
# Track frame offsets:
#       150
#       22380
#       38715
#       54501
#       73911
#       91786
#       107447
#       120545
#       144274
#       161498
#       178069
#       202429
#       220052
#
# Disc length: 3104 seconds
#
# Revision: 0
# Processed by: cddbd v1.5.2PL0 Copyright (c) Steve Scherf et al.
# Submitted via: CD-Import v1.0
#
DISCID=bc0c1e0d
DTITLE=Morphologue - Flower Art Pictures
DYEAR=07
DGENRE=
TTITLE0=Homogeneous
TTITLE1=Birds And Cats
TTITLE2=Apple
TTITLE3=London
TTITLE4=Don't Sing The Blues
TTITLE5=I Didn't Know
TTITLE6=Reflect
TTITLE7=Fight
TTITLE8=Shake Down
TTITLE9=Breathless
TTITLE10=Flower Art Pictures
TTITLE11=Your Hand In Mind
TTITLE12=Trip To Heaven
EXTD=
EXTT0=
EXTT1=
EXTT2=
EXTT3=
EXTT4=
EXTT5=
EXTT6=
EXTT7=
EXTT8=
EXTT9=
EXTT10=
EXTT11=
EXTT12=
PLAYORDER=
